#!OML:ASF F:\VICON\USERDATA\INSTALL\rory3\rory3.ASF
:FULLY-SPECIFIED
:DEGREES
522
root -0.216498 16.91 -16.7601 26.6071 -6.05301 8.3688
lowerback -5.5009 -4.53877 0.469221
upperback -10.9788 -6.5039 -3.97605
thorax -9.1152 -3.55219 -4.30435
lowerneck -13.6267 5.33334 2.61364
upperneck 27.116 7.35941 -1.66305
head 11.1927 3.37142 -0.0518061
rclavicle -9.2733e-014 -5.88403e-014
rhumerus -23.2632 -43.349 -13.6746
rradius 14.176
rwrist 27.1488
rhand 13.2877 11.1642
rfingers 7.12502
rthumb 38.2375 -14.57
lclavicle -9.2733e-014 -5.88403e-014
lhumerus 62.2246 -53.1422 -0.80785
lradius 42.5316
lwrist -35.6995
lhand -26.0509 5.40897
lfingers 7.12502
lthumb 0.496602 35.3881
rfemur -37.6804 4.10436 18.9878
rtibia 40.2354
rfoot -25.4762 -23.7901
rtoes 10.1146
lfemur -45.7345 -0.628149 -21.0829
ltibia 41.298
lfoot -18.8734 10.1063
ltoes -13.877
523
root -0.21683 16.8937 -16.7042 26.3235 -6.65673 7.67925
lowerback -5.17154 -4.17753 0.57252
upperback -10.7866 -5.98883 -3.71236
thorax -9.01175 -3.27946 -4.07852
lowerneck -13.2129 5.1951 2.64622
upperneck 26.8749 7.15766 -1.68706
head 11.0165 3.28961 -0.109262
rclavicle 4.8901e-014 6.04305e-014
rhumerus -22.5314 -42.8933 -13.8798
rradius 14.2335
rwrist 26.5276
rhand 13.3757 10.6319
rfingers 7.12502
rthumb 38.3206 -15.0794
lclavicle 4.8901e-014 6.04305e-014
lhumerus 61.0657 -52.9882 0.104189
lradius 41.4477
lwrist -37.5213
lhand -26.7669 6.68693
lfingers 7.12502
lthumb -0.194927 36.6666
rfemur -37.1184 4.07938 19.7669
rtibia 40.0982
rfoot -24.9387 -23.3497
rtoes 9.91964
lfemur -47.4501 -0.414296 -21.3896
ltibia 41.3115
lfoot -19.9352 10.7055
ltoes -15.0755
524
root -0.219503 16.8829 -16.6388 26.1322 -7.1584 6.93951
lowerback -4.69064 -3.84525 0.768145
upperback -10.7321 -5.52274 -3.44511
thorax -9.17244 -3.04385 -3.88639
lowerneck -13.0645 5.05065 2.88185
upperneck 26.8215 6.92276 -1.79325
head 10.9753 3.1967 -0.223332
rclavicle 7.60351e-014 4.13472e-014
rhumerus -21.6589 -41.1243 -14.3496
rradius 14.3798
rwrist 24.8198
rhand 13.4099 9.81515
rfingers 7.12502
rthumb 38.3529 -15.8872
lclavicle 7.60351e-014 4.13472e-014
lhumerus 59.8606 -52.9327 0.918865
lradius 40.43
lwrist -39.2034
lhand -27.1187 7.54719
lfingers 7.12502
lthumb -0.534729 37.5263
rfemur -36.4926 3.98172 20.6516
rtibia 39.7546
rfoot -24.2236 -23.1947
rtoes 8.41604
lfemur -49.0963 -0.424092 -21.3951
ltibia 41.3211
lfoot -21.4809 10.7008
ltoes -13.6329
525
root -0.215375 16.8783 -16.5651 25.8411 -7.47857 5.99155
lowerback -4.44097 -3.4837 1.31665
upperback -10.2577 -4.99089 -3.21576
thorax -8.76111 -2.79569 -3.96479
lowerneck -13.9353 4.91457 3.11542
upperneck 27.0018 6.65254 -1.78634
head 11.2185 3.08657 -0.270763
rclavicle 1.41137e-014 -2.06736e-014
rhumerus -21.1799 -42.2277 -14.0837
rradius 14.2624
rwrist 25.3137
rhand 12.5077 7.75153
rfingers 7.12502
rthumb 37.5008 -18.1818
lclavicle 1.41137e-014 -2.06736e-014
lhumerus 59.3887 -52.1349 0.962592
lradius 39.8163
lwrist -39.7256
lhand -27.0004 7.28618
lfingers 7.12502
lthumb -0.420507 37.2655
rfemur -35.6123 3.64419 21.8226
rtibia 39.2978
rfoot -23.4976 -22.8632
rtoes 7.1791
lfemur -50.3632 -1.163 -20.6905
ltibia 41.2915
lfoot -23.7964 10.3968
ltoes -9.41592
526
root -0.206785 16.8755 -16.4718 25.2366 -8.04819 4.77381
lowerback -4.30338 -3.11461 2.05906
upperback -10.1778 -4.45449 -2.83694
thorax -8.72962 -2.56454 -3.9913
lowerneck -11.8372 4.79738 3.23786
upperneck 26.3851 6.4929 -1.81678
head 10.5738 3.05289 -0.386432
rclavicle -1.72943e-014 -1.74931e-014
rhumerus -21.3371 -44.6407 -12.5097
rradius 13.8542
rwrist 29.3869
rhand 11.8623 6.68442
rfingers 7.12502
rthumb 36.8905 -19.4083
lclavicle -1.72943e-014 -1.74931e-014
lhumerus 56.818 -52.2727 3.04219
lradius 39.0661
lwrist -40.4671
lhand -27.2762 6.20474
lfingers 7.12502
lthumb -0.686862 36.1834
rfemur -34.1709 3.43068 23.1733
rtibia 38.6841
rfoot -22.4096 -22.5149
rtoes 4.85741
lfemur -51.0028 -2.06744 -19.5283
ltibia 41.27
lfoot -26.2375 10.8918
ltoes -8.90395
527
root -0.215271 16.8653 -16.4184 25.3959 -8.14841 4.108
lowerback -4.21442 -2.97398 2.20599
upperback -10.0223 -4.23566 -2.541
thorax -8.56906 -2.44477 -3.76614
lowerneck -12.5046 4.72782 3.47753
upperneck 26.7958 6.3039 -1.72664
head 10.8585 2.98965 -0.397823
rclavicle 2.72335e-014 1.94809e-014
rhumerus -20.9954 -45.0685 -11.9829
rradius 13.866
rwrist 30.2606
rhand 11.2346 5.40982
rfingers 7.12502
rthumb 36.2964 -20.8333
lclavicle 2.72335e-014 1.94809e-014
lhumerus 55.4179 -51.4133 3.8601
lradius 38.4855
lwrist -41.0603
lhand -27.4676 5.42529
lfingers 7.12502
lthumb -0.871683 35.4033
rfemur -33.7632 3.47269 23.9945
rtibia 38.122
rfoot -21.961 -22.4655
rtoes 4.81693
lfemur -52.7571 -2.36445 -19.1232
ltibia 41.1241
lfoot -26.6487 11.7144
ltoes -12.1199
528
root -0.225069 16.8622 -16.3437 25.2591 -8.70924 3.41981
lowerback -4.05886 -2.68473 2.17648
upperback -9.72251 -3.82058 -2.35017
thorax -8.26577 -2.21377 -3.56293
lowerneck -13.163 4.69505 4.00128
upperneck 27.0079 6.12313 -1.7705
head 11.0856 2.94642 -0.506792
rclavicle -2.49475e-014 -3.49861e-014
rhumerus -20.5765 -44.28 -11.7783
rradius 13.988
rwrist 29.7508
rhand 10.7529 4.80127
rfingers 7.12502
rthumb 35.8401 -21.5544
lclavicle -2.49475e-014 -3.49861e-014
lhumerus 54.4319 -50.4486 4.12472
lradius 37.8684
lwrist -41.9446
lhand -27.3086 4.22203
lfingers 7.12502
lthumb -0.718176 34.2006
rfemur -32.9914 3.54971 24.7188
rtibia 37.6079
rfoot -21.7119 -21.9716
rtoes 5.49691
lfemur -53.9469 -3.53266 -18.0248
ltibia 40.884
lfoot -27.7801 14.2112
ltoes -15.1218
